<svg height="445" viewBox="0 0 435.24 445" width="435.24" xmlns="http://www.w3.org/2000/svg"><g font-family="Helvetica-Bold, Helvetica" font-weight="700" letter-spacing="-.003em"><text fill="#fff" font-size="75" transform="translate(0 58)"><tspan x="0" y="0">Hate</tspan></text><text fill="#fff" font-size="75" transform="translate(0 131)"><tspan x="0" y="0">Crime</tspan></text><text fill="#fff" font-size="75" transform="translate(0 204)"><tspan x="0" y="0">Hurts</tspan></text><text fill="#fff" font-size="75" transform="translate(0 277)"><tspan x="0" y="0">Stop</tspan></text><text fill="#fff" font-size="75" transform="translate(0 350)"><tspan x="0" y="0">It</tspan></text><text fill="#fff" font-size="75" transform="translate(0 423)"><tspan x="0" y="0">Here</tspan></text><text fill="#f00" font-size="97" transform="translate(192 204)"><tspan x="0" y="0">.</tspan></text><text fill="#f00" font-size="97" transform="translate(165 423)"><tspan x="0" y="0">.</tspan></text></g><g fill-rule="evenodd" transform="translate(262 376)"><g fill="#fffffe"><path d="m27.3 0h8.5a8.33 8.33 0 0 1 3.46.623 4.422 4.422 0 0 1 2.585 4.413 4.967 4.967 0 0 1 -.693 2.748 5.007 5.007 0 0 1 -1.944 1.716 3.828 3.828 0 0 1 1.647 1.17 4.2 4.2 0 0 1 .617 2.353l.089 2.505a7.7 7.7 0 0 0 .178 1.591 1.563 1.563 0 0 0 .814 1.144v.42h-3.1a2.328 2.328 0 0 1 -.2-.624 11.932 11.932 0 0 1 -.127-1.475l-.153-3.116a2.629 2.629 0 0 0 -1.322-2.454 5.328 5.328 0 0 0 -2.212-.344h-5.6v8.013h-2.539zm8.224 8.56a4.667 4.667 0 0 0 2.739-.712 2.935 2.935 0 0 0 1.009-2.569 2.773 2.773 0 0 0 -1.411-2.722 4.5 4.5 0 0 0 -2.015-.381h-6.012v6.384z"/><path d="m53.918 5.438a5.152 5.152 0 0 1 2.06 1.762 6.087 6.087 0 0 1 .911 2.4 15.819 15.819 0 0 1 .2 3h-9.906a5.888 5.888 0 0 0 .972 3.336 3.241 3.241 0 0 0 2.814 1.264 3.616 3.616 0 0 0 2.84-1.189 4.048 4.048 0 0 0 .84-1.6h2.251a4.73 4.73 0 0 1 -.591 1.673 6.017 6.017 0 0 1 -1.121 1.507 5.289 5.289 0 0 1 -2.563 1.374 7.753 7.753 0 0 1 -1.855.2 5.687 5.687 0 0 1 -4.285-1.85 7.232 7.232 0 0 1 -1.757-5.184 7.855 7.855 0 0 1 1.772-5.325 5.82 5.82 0 0 1 4.626-2.048 6.154 6.154 0 0 1 2.794.68zm.82 5.349a5.98 5.98 0 0 0 -.643-2.379 3.292 3.292 0 0 0 -3.116-1.654 3.441 3.441 0 0 0 -2.623 1.139 4.321 4.321 0 0 0 -1.122 2.894z"/><path d="m68.99 5.788a5.364 5.364 0 0 1 1.736 3.854h-2.226a4.118 4.118 0 0 0 -.929-2.093 2.933 2.933 0 0 0 -2.327-.833 3.218 3.218 0 0 0 -3.13 2.135 8.466 8.466 0 0 0 -.61 3.416 6.426 6.426 0 0 0 .865 3.444 3.361 3.361 0 0 0 4.98.529 4.776 4.776 0 0 0 1.151-2.376h2.225a5.972 5.972 0 0 1 -1.907 3.962 5.951 5.951 0 0 1 -3.905 1.253 5.214 5.214 0 0 1 -4.261-1.952 7.474 7.474 0 0 1 -1.59-4.878 8.223 8.223 0 0 1 1.738-5.584 5.634 5.634 0 0 1 4.44-2 5.939 5.939 0 0 1 3.745 1.12"/><path d="m82.885 6.422a6.873 6.873 0 0 1 1.806 5.159 8.893 8.893 0 0 1 -1.591 5.439 5.741 5.741 0 0 1 -4.938 2.148 5.555 5.555 0 0 1 -4.433-1.9 7.531 7.531 0 0 1 -1.643-5.1 8.153 8.153 0 0 1 1.73-5.468 5.791 5.791 0 0 1 4.648-2.034 6.107 6.107 0 0 1 4.421 1.754m-1.422 9.053a8.64 8.64 0 0 0 .837-3.83 6.869 6.869 0 0 0 -.6-3.1 3.389 3.389 0 0 0 -3.3-1.878 3.241 3.241 0 0 0 -3.018 1.6 7.478 7.478 0 0 0 -.944 3.862 6.5 6.5 0 0 0 .944 3.62 3.309 3.309 0 0 0 2.994 1.453 3.115 3.115 0 0 0 3.087-1.721"/><path d="m95.075 5.61a6.281 6.281 0 0 1 1.318 1.3v-1.72h2.107v12.388a9.18 9.18 0 0 1 -.76 4.1q-1.421 2.772-5.362 2.773a6.56 6.56 0 0 1 -3.689-.986 3.844 3.844 0 0 1 -1.674-3.084h2.328a2.587 2.587 0 0 0 .657 1.407 3.34 3.34 0 0 0 2.429.763q2.619 0 3.428-1.856a10.509 10.509 0 0 0 .443-3.905 4.5 4.5 0 0 1 -1.647 1.552 5.893 5.893 0 0 1 -6.4-1.062q-1.653-1.572-1.653-5.2a7.887 7.887 0 0 1 1.666-5.342 5.146 5.146 0 0 1 4.022-1.921 4.93 4.93 0 0 1 2.788.789m.28 2.454a3.319 3.319 0 0 0 -2.646-1.217 3.268 3.268 0 0 0 -3.29 2.264 8.927 8.927 0 0 0 -.468 3.167 5.642 5.642 0 0 0 .93 3.5 3 3 0 0 0 2.5 1.2 3.508 3.508 0 0 0 3.454-2.226 7.216 7.216 0 0 0 .557-2.938 5.7 5.7 0 0 0 -1.038-3.753"/><path d="m101.989 5.062h2.175v1.938a6.091 6.091 0 0 1 2.048-1.718 5.467 5.467 0 0 1 2.4-.521q2.9 0 3.917 2.022a7.185 7.185 0 0 1 .56 3.167v8.738h-2.328v-8.588a4.65 4.65 0 0 0 -.369-2.01 2.235 2.235 0 0 0 -2.213-1.272 4.508 4.508 0 0 0 -1.335.166 3.432 3.432 0 0 0 -1.65 1.116 3.381 3.381 0 0 0 -.744 1.4 9.412 9.412 0 0 0 -.171 2.054v7.135h-2.29z"/><path d="m116.476 0h2.324v2.6h-2.328zm0 5.125h2.324v13.56h-2.328z"/><path d="m123.623 14.411a3.276 3.276 0 0 0 .585 1.755 3.708 3.708 0 0 0 3.063 1.107 4.594 4.594 0 0 0 2.285-.554 1.831 1.831 0 0 0 .987-1.71 1.462 1.462 0 0 0 -.789-1.336 9.54 9.54 0 0 0 -1.99-.648l-1.849-.458a9.135 9.135 0 0 1 -2.615-.967 2.88 2.88 0 0 1 -1.5-2.569 3.9 3.9 0 0 1 1.416-3.131 5.68 5.68 0 0 1 3.8-1.2q3.12 0 4.5 1.806a3.882 3.882 0 0 1 .838 2.467h-2.162a2.593 2.593 0 0 0 -.559-1.4 3.636 3.636 0 0 0 -2.8-.9 3.415 3.415 0 0 0 -2.012.494 1.537 1.537 0 0 0 -.683 1.305 1.6 1.6 0 0 0 .9 1.42 5.471 5.471 0 0 0 1.529.558l1.543.369a12.078 12.078 0 0 1 3.369 1.158 3.066 3.066 0 0 1 1.336 2.76 4.188 4.188 0 0 1 -1.4 3.142 6 6 0 0 1 -4.256 1.322q-3.077 0-4.359-1.38a5.184 5.184 0 0 1 -1.371-3.415z"/><path d="m143.7 5.438a5.152 5.152 0 0 1 2.06 1.762 6.087 6.087 0 0 1 .911 2.4 15.819 15.819 0 0 1 .2 3h-9.908a5.888 5.888 0 0 0 .972 3.336 3.24 3.24 0 0 0 2.814 1.256 3.616 3.616 0 0 0 2.84-1.189 4.048 4.048 0 0 0 .84-1.6h2.251a4.73 4.73 0 0 1 -.591 1.673 6.017 6.017 0 0 1 -1.121 1.507 5.3 5.3 0 0 1 -2.563 1.374 7.753 7.753 0 0 1 -1.855.2 5.686 5.686 0 0 1 -4.285-1.85 7.232 7.232 0 0 1 -1.757-5.184 7.855 7.855 0 0 1 1.77-5.328 5.82 5.82 0 0 1 4.626-2.048 6.154 6.154 0 0 1 2.794.68zm.82 5.349a5.98 5.98 0 0 0 -.643-2.379 3.292 3.292 0 0 0 -3.116-1.654 3.441 3.441 0 0 0 -2.623 1.139 4.321 4.321 0 0 0 -1.122 2.894z"/><path d="m157.011 0h2.328v2.6h-2.328zm0 5.125h2.328v13.56h-2.328z"/><path d="m163.256 1.26h2.315v3.8h2.174v1.87h-2.174v8.89a.963.963 0 0 0 .483.955 2.061 2.061 0 0 0 .89.139c.11 0 .229 0 .356-.008s.276-.02.445-.042v1.818a5.132 5.132 0 0 1 -.82.165 7.765 7.765 0 0 1 -.925.053 2.486 2.486 0 0 1 -2.175-.821 3.649 3.649 0 0 1 -.572-2.13v-9.016h-1.844v-1.87h1.844z"/><path d="m170.582 15.912h2.658v2.773h-2.658z"/></g><path d="m39.012 31.678a4.618 4.618 0 0 1 1.755 1.31 5.854 5.854 0 0 1 .943 1.577 5.27 5.27 0 0 1 .347 1.972 5.619 5.619 0 0 1 -.674 2.626 3.763 3.763 0 0 1 -2.226 1.825 3.506 3.506 0 0 1 1.843 1.483 6.174 6.174 0 0 1 .541 2.932v1.259a9.5 9.5 0 0 0 .1 1.743 1.563 1.563 0 0 0 .723 1.068v.47h-4.326q-.178-.623-.254-1a9.165 9.165 0 0 1 -.166-1.616l-.026-1.742a3.534 3.534 0 0 0 -.619-2.391 3.156 3.156 0 0 0 -2.232-.6h-3.826v7.351h-3.828v-18.745h8.967a8.154 8.154 0 0 1 2.958.483zm-8.1 2.773v5.037h4.216a4.485 4.485 0 0 0 1.885-.306 2.109 2.109 0 0 0 1.111-2.111 2.369 2.369 0 0 0 -1.075-2.29 3.894 3.894 0 0 0 -1.812-.33z" fill="#d8232a"/><path d="m54.551 36.36a5.631 5.631 0 0 1 2.395 2.051 6.8 6.8 0 0 1 1.105 2.866 17.633 17.633 0 0 1 .12 2.751h-10.1a3.33 3.33 0 0 0 1.45 2.926 3.681 3.681 0 0 0 2 .521 2.809 2.809 0 0 0 2.758-1.589h3.7a4.526 4.526 0 0 1 -1.344 2.505 6.737 6.737 0 0 1 -5.215 2.022 7.56 7.56 0 0 1 -4.884-1.705q-2.113-1.708-2.113-5.551a7.51 7.51 0 0 1 1.909-5.524 6.684 6.684 0 0 1 4.958-1.923 7.9 7.9 0 0 1 3.261.65m-5.423 3.131a3.774 3.774 0 0 0 -.966 2.147h6.245a3.027 3.027 0 0 0 -.965-2.191 3.179 3.179 0 0 0 -2.15-.748 2.874 2.874 0 0 0 -2.164.792" fill="#d8232a"/><path d="m71.663 37.568a7.386 7.386 0 0 1 1.7 5.266 8.315 8.315 0 0 1 -1.663 5.583 5.381 5.381 0 0 1 -4.269 1.92 4.475 4.475 0 0 1 -2.765-.826 5.343 5.343 0 0 1 -1.178-1.336v7.225h-3.588v-19.32h3.473v2.047a5.818 5.818 0 0 1 1.256-1.427 4.63 4.63 0 0 1 2.893-.929 5.482 5.482 0 0 1 4.141 1.794m-2.783 2.61a2.578 2.578 0 0 0 -2.4-1.234 2.727 2.727 0 0 0 -2.737 1.87 7.025 7.025 0 0 0 -.385 2.518 4 4 0 0 0 1.3 3.4 2.977 2.977 0 0 0 1.825.572 2.651 2.651 0 0 0 2.332-1.171 6.121 6.121 0 0 0 .064-5.952" fill="#d8232a"/><path d="m87.477 48.247a6.451 6.451 0 0 1 -5.329 2.167 6.449 6.449 0 0 1 -5.329-2.167 8.6 8.6 0 0 1 0-10.414 6.406 6.406 0 0 1 5.329-2.2 6.407 6.407 0 0 1 5.329 2.2 8.6 8.6 0 0 1 0 10.414m-2.9-2a5.244 5.244 0 0 0 .853-3.213 5.216 5.216 0 0 0 -.853-3.206 3.221 3.221 0 0 0 -4.89 0 5.189 5.189 0 0 0 -.859 3.206 5.217 5.217 0 0 0 .859 3.213 3.208 3.208 0 0 0 4.89 0" fill="#d8232a"/><path d="m99.527 35.755c.047 0 .151.011.312.019v3.715q-.344-.039-.611-.052t-.432-.012a3 3 0 0 0 -2.938 1.424 5.54 5.54 0 0 0 -.42 2.468v6.626h-3.65v-13.863h3.459v2.42a7.684 7.684 0 0 1 1.463-1.9 3.982 3.982 0 0 1 2.646-.852c.067 0 .125 0 .171.006" fill="#d8232a"/><path d="m100.539 38.789v-2.582h1.933v-3.867h3.587v3.867h2.251v2.582h-2.251v7.326a1.652 1.652 0 0 0 .216 1.062 2.379 2.379 0 0 0 1.323.21c.11 0 .226 0 .35-.006s.243-.011.362-.019v2.709l-1.717.063q-2.569.089-3.511-.89a2.653 2.653 0 0 1 -.61-1.921v-8.534z" fill="#d8232a"/><path d="m121.6 34.426h-3.676v-3.345h3.676zm-3.676 1.653h3.676v13.864h-3.676z" fill="#d8232a"/><path d="m123.688 38.789v-2.582h1.933v-3.867h3.587v3.867h2.251v2.582h-2.251v7.326a1.652 1.652 0 0 0 .216 1.062 2.379 2.379 0 0 0 1.323.21c.11 0 .226 0 .35-.006s.243-.011.362-.019v2.709l-1.717.063q-2.57.089-3.511-.89a2.657 2.657 0 0 1 -.61-1.921v-8.534z" fill="#d8232a"/><path d="m133.723 46.14h3.854v3.8h-3.854z" fill="#d8232a"/><path d="m2.52 55.236h-2.52v-55.236h2.52z" fill="#d8232a"/></g></svg>